<svg xmlns="http://www.w3.org/2000/svg" viewBox="0 0 200 240" role="img" aria-label="QuoteXbert robot mascot logo">
  <!-- Body -->
  <rect x="62" y="118" width="76" height="58" rx="14" fill="#b03a20"/>
  <!-- Waist / spring coils -->
  <rect x="70" y="174" width="60" height="6" rx="3" fill="#222"/>
  <rect x="70" y="181" width="60" height="6" rx="3" fill="#1a1a1a"/>
  <rect x="70" y="188" width="60" height="6" rx="3" fill="#222"/>
  <!-- Hips -->
  <rect x="68" y="193" width="64" height="14" rx="10" fill="#b03a20"/>
  <!-- Left leg upper -->
  <rect x="72" y="205" width="22" height="28" rx="8" fill="#1a1a1a"/>
  <!-- Left foot -->
  <rect x="68" y="228" width="30" height="16" rx="8" fill="#b03a20"/>
  <!-- Right leg upper -->
  <rect x="106" y="205" width="22" height="28" rx="8" fill="#1a1a1a"/>
  <!-- Right foot -->
  <rect x="102" y="228" width="30" height="16" rx="8" fill="#b03a20"/>
  <!-- Left shoulder -->
  <circle cx="58" cy="128" r="10" fill="#b03a20"/>
  <!-- Left upper arm -->
  <rect x="32" y="122" width="28" height="22" rx="10" fill="#b03a20"/>
  <!-- Left elbow coil -->
  <rect x="34" y="142" width="24" height="5" rx="2" fill="#222"/>
  <rect x="34" y="147" width="24" height="5" rx="2" fill="#1a1a1a"/>
  <!-- Left lower arm -->
  <rect x="34" y="150" width="24" height="20" rx="10" fill="#b03a20"/>
  <!-- Left hand -->
  <circle cx="46" cy="176" r="9" fill="#1a1a1a"/>
  <!-- Right shoulder -->
  <circle cx="142" cy="128" r="10" fill="#b03a20"/>
  <!-- Right upper arm -->
  <rect x="140" y="122" width="28" height="22" rx="10" fill="#b03a20"/>
  <!-- Right elbow coil -->
  <rect x="142" y="142" width="24" height="5" rx="2" fill="#222"/>
  <rect x="142" y="147" width="24" height="5" rx="2" fill="#1a1a1a"/>
  <!-- Right lower arm -->
  <rect x="142" y="150" width="24" height="20" rx="10" fill="#b03a20"/>
  <!-- Right hand -->
  <circle cx="154" cy="176" r="9" fill="#1a1a1a"/>
  <!-- Neck coil -->
  <rect x="88" y="108" width="24" height="6" rx="3" fill="#222"/>
  <rect x="88" y="114" width="24" height="6" rx="3" fill="#1a1a1a"/>
  <!-- HEAD - house shaped (pentagon) -->
  <path d="M54 108 L54 72 L100 42 L146 72 L146 108 Z" fill="#333"/>
  <!-- Roof / rooftop trim -->
  <path d="M48 76 L100 38 L152 76 L148 76 L100 46 L52 76 Z" fill="#b03a20"/>
  <!-- Chimney -->
  <rect x="130" y="38" width="12" height="22" rx="3" fill="#b03a20"/>
  <!-- Left ear circle -->
  <circle cx="54" cy="88" r="9" fill="#b03a20"/>
  <!-- Right ear circle -->
  <circle cx="146" cy="88" r="9" fill="#b03a20"/>
  <!-- Left eye outer ring -->
  <circle cx="84" cy="85" r="14" fill="#b03a20"/>
  <!-- Left eye glow -->
  <circle cx="84" cy="85" r="10" fill="#ff8c00"/>
  <!-- Left eye inner glow -->
  <circle cx="84" cy="85" r="6" fill="#ffe066"/>
  <!-- Right eye outer ring -->
  <circle cx="116" cy="85" r="14" fill="#b03a20"/>
  <!-- Right eye glow -->
  <circle cx="116" cy="85" r="10" fill="#ff8c00"/>
  <!-- Right eye inner glow -->
  <circle cx="116" cy="85" r="6" fill="#ffe066"/>
  <!-- Smile -->
  <path d="M88 101 Q100 110 112 101" stroke="#444" stroke-width="3" fill="none" stroke-linecap="round"/>
</svg>
